# xmcd
#
# Track frame offsets:
#       150
#       21902
#       47237
#       79571
#       108701
#       121122
#       148601
#
# Disc length: 2827 seconds
#
# Revision: 0
# Processed by: cddbd v1.5.1PL0 Copyright (c) Steve Scherf et al.
# Submitted via: CD-DA_X-Tractor v0.24
#
DISCID=580b0907
DTITLE=Såsom Eld - Elden Kommer inifrån
DYEAR=1900
DGENRE=praise
TTITLE0=Kom Låt Oss Böja
TTITLE1=Scream
TTITLE2=I Love You
TTITLE3=Jesus Kristus
TTITLE4=Sång I Anden/Strålande Ljus
TTITLE5=Your Love
TTITLE6=Bow Down/Thus Says The Lord
EXTD=
EXTT0=
EXTT1=
EXTT2=
EXTT3=
EXTT4=
EXTT5=
EXTT6=
PLAYORDER=
